<?xml version="1.0" encoding="UTF-8" standalone="no"?>
<!-- Generator: Adobe Illustrator 19.0.0, SVG Export Plug-In . SVG Version: 6.00 Build 0)  -->

<svg
   xmlns:dc="http://purl.org/dc/elements/1.1/"
   xmlns:cc="http://creativecommons.org/ns#"
   xmlns:rdf="http://www.w3.org/1999/02/22-rdf-syntax-ns#"
   xmlns:svg="http://www.w3.org/2000/svg"
   xmlns="http://www.w3.org/2000/svg"
   xmlns:sodipodi="http://sodipodi.sourceforge.net/DTD/sodipodi-0.dtd"
   xmlns:inkscape="http://www.inkscape.org/namespaces/inkscape"
   version="1.1"
   id="Layer_1"
   x="0px"
   y="0px"
   viewBox="0 0 395.636 395.636"
   style="enable-background:new 0 0 395.636 395.636;"
   xml:space="preserve"
   sodipodi:docname="pluma3.svg"
   inkscape:version="0.92.2 (5c3e80d, 2017-08-06)"><metadata
     id="metadata3128"><rdf:RDF><cc:Work
         rdf:about=""><dc:format>image/svg+xml</dc:format><dc:type
           rdf:resource="http://purl.org/dc/dcmitype/StillImage" /><dc:title></dc:title></cc:Work></rdf:RDF></metadata><defs
     id="defs3126" /><sodipodi:namedview
     pagecolor="#ffffff"
     bordercolor="#666666"
     borderopacity="1"
     objecttolerance="10"
     gridtolerance="10"
     guidetolerance="10"
     inkscape:pageopacity="0"
     inkscape:pageshadow="2"
     inkscape:window-width="1920"
     inkscape:window-height="1178"
     id="namedview3124"
     showgrid="false"
     inkscape:zoom="1.1930159"
     inkscape:cx="158.00034"
     inkscape:cy="176.43164"
     inkscape:window-x="-8"
     inkscape:window-y="-8"
     inkscape:window-maximized="1"
     inkscape:current-layer="Layer_1" /><circle
     style="fill:#104698;fill-opacity:0.99588478"
     cx="197.818"
     cy="197.818"
     r="197.818"
     id="circle3077" /><g
     id="g3093" /><g
     id="g3095" /><g
     id="g3097" /><g
     id="g3099" /><g
     id="g3101" /><g
     id="g3103" /><g
     id="g3105" /><g
     id="g3107" /><g
     id="g3109" /><g
     id="g3111" /><g
     id="g3113" /><g
     id="g3115" /><g
     id="g3117" /><g
     id="g3119" /><g
     id="g3121" /><g
     transform="matrix(0.26663263,0,0,0.26663263,30.355915,237.24171)"
     id="g5820"><path
       inkscape:connector-curvature="0"
       style="fill:#f2edda"
       d="M 250.733,259.87 V 89.204 c 0,0 -34.133,-17.067 -76.8,-17.067 -76.8,0 -136.533,17.067 -136.533,17.067 v 42.667 332.8 c 0,0 59.733,-17.067 136.533,-17.067 42.667,0 76.8,17.067 76.8,17.067 0,0 42.667,-17.067 85.333,-17.067 76.8,0 128,17.067 128,17.067 v -332.8 -42.667 c 0,0 -17.067,-8.533 -51.2,-8.533 V 217.204 80.67 3.87 C 344.6,29.47 250.733,89.204 250.733,89.204 Z"
       id="path5816" /><path
       inkscape:connector-curvature="0"
       style="fill:#aab1ba"
       d="m 498.2,131.87 v 332.8 c 0,18.773 -15.36,34.133 -34.133,34.133 H 250.733 V 464.67 c 0,0 42.667,-17.067 85.333,-17.067 76.8,0 128,17.067 128,17.067 v -332.8 z m -247.467,332.8 v 34.133 H 37.4 c -18.773,0 -34.133,-15.36 -34.133,-34.133 V 131.87 H 37.4 v 332.8 c 0,0 59.733,-17.067 136.533,-17.067 42.667,10e-4 76.8,17.067 76.8,17.067 z"
       id="path5818" /></g><path
     inkscape:connector-curvature="0"
     style="fill:#193651;fill-opacity:1;stroke-width:0.26663265"
     d="M 154.09132,371.37659 H 40.327975 c -5.68807,0 -10.23869,-4.55062 -10.23869,-10.23869 v -88.73534 c 0,-0.68259 0.45514,-1.13773 1.13772,-1.13773 0.68258,0 1.13772,0.45514 1.13772,1.13773 v 88.73534 c 0,4.32291 3.64034,7.96351 7.96352,7.96351 h 55.74408 v -7.28093 c -2.27517,-0.91002 -10.01125,-4.09548 -19.33966,-4.09548 -20.02224,0 -35.94928,4.55062 -36.17671,4.55062 -0.22745,0 -0.68259,0 -0.91002,-0.22744 -0.22744,-0.22744 -0.45514,-0.45514 -0.45514,-0.91002 V 261.02641 c 0,-0.45514 0.22743,-0.91002 0.91001,-1.13773 0.22744,0 16.38191,-4.55061 36.63186,-4.55061 11.60385,0 20.70482,4.55061 20.93253,4.77806 0.45514,0.22743 0.68258,0.68257 0.68258,0.91001 v 88.96278 c 5.688065,-3.18546 24.117715,-13.65159 40.954765,-19.33966 v -90.78282 c -17.29192,6.8258 -34.58412,17.29193 -34.58412,17.51963 -0.45514,0.22744 -1.13772,0.22744 -1.5926,-0.45514 -0.22743,-0.45514 -0.22743,-1.13772 0.45515,-1.5926 0.22743,-0.22744 18.42965,-11.60385 36.63185,-18.20221 0.45515,-0.22743 0.68258,0 1.13772,0.22744 0.22744,0.22744 0.45514,0.45515 0.45514,0.91002 v 93.28596 c 0,0.45514 -0.22743,0.91002 -0.68257,1.13772 -20.02224,6.59836 -42.775075,20.24995 -43.002505,20.47739 -0.45515,0.22743 -0.68258,0.22743 -1.13773,0 -0.45514,-0.22744 -0.68257,-0.68258 -0.68257,-0.91002 v -90.32821 c -2.27518,-0.91001 -10.01126,-4.09547 -19.33967,-4.09547 -17.51963,0 -31.8538,3.41289 -35.2667,4.32291 v 97.83631 c 4.32292,-1.13772 18.42965,-4.32291 35.2667,-4.32291 10.23869,0 18.42965,3.4129 20.47739,4.55062 2.27517,-0.91002 12.513855,-4.55062 22.752555,-4.55062 16.83705,0 28.89578,2.95776 32.99125,4.09548 v -97.60888 c -0.91001,-0.22744 -2.04773,-0.45514 -3.86804,-0.68258 -0.68257,-0.22744 -1.13772,-0.68258 -0.91001,-1.36515 0,-0.68259 0.68258,-1.13773 1.36516,-0.91002 2.95775,0.45514 4.77805,0.91002 4.77805,0.91002 0.45515,0.22743 0.91002,0.68257 0.91002,1.13771 V 361.3656 c 0,0.45514 -0.22744,0.68258 -0.45514,0.91002 -0.22744,0.22744 -0.68258,0.22744 -1.13772,0.22744 -0.22744,0 -13.65159,-4.55062 -33.67383,-4.55062 -9.32868,0 -18.8848,3.18546 -21.615105,4.09547 v 7.28094 h 55.743545 c 4.32291,0 7.96351,-3.64034 7.96351,-7.96352 v -88.73534 c 0,-0.68258 0.45514,-1.13772 1.13773,-1.13772 0.68257,0 1.13771,0.45514 1.13771,1.13772 v 88.73534 c -0.2277,5.46091 -4.77832,10.01126 -10.46639,10.01126 z M 53.979565,337.24761 c -0.45514,0 -0.91001,-0.22744 -1.13772,-0.91001 -0.22744,-0.68259 0.22744,-1.13773 0.91002,-1.36516 0.68258,-0.22744 16.38191,-4.32292 30.0335,-1.13773 0.68258,0.22744 0.91002,0.68259 0.91002,1.36516 -0.22744,0.68258 -0.68258,0.91002 -1.36516,0.91002 -13.19645,-3.18546 -28.89578,0.91002 -29.12348,1.13772 2.6e-4,0 -0.22718,0 -0.22718,0 z m 54.606365,-9.10097 c -0.45514,0 -0.91002,-0.22744 -0.91002,-0.68258 -0.22744,-0.45514 0,-1.13772 0.45514,-1.5926 0.45514,-0.22743 13.87903,-7.05323 20.70483,-9.10097 0.68258,-0.22743 1.13772,0.22744 1.36516,0.68258 0.22744,0.68258 -0.22744,1.13772 -0.68258,1.36516 -6.59836,2.04774 -20.24996,8.87353 -20.24996,9.10097 -0.22743,0.22744 -0.45514,0.22744 -0.68257,0.22744 z m -54.606365,-4.55062 c -0.45514,0 -0.91001,-0.22744 -1.13772,-0.91002 -0.22744,-0.68258 0.22744,-1.13772 0.91002,-1.36516 0.68258,-0.22743 16.38191,-4.32291 30.0335,-1.13771 0.68258,0.22743 0.91002,0.68257 0.91002,1.36515 -0.22744,0.68258 -0.68258,0.91002 -1.36516,0.91002 -13.19645,-3.18546 -28.89578,0.91002 -29.12348,1.13772 2.6e-4,0 -0.22718,0 -0.22718,0 z m 54.606365,-9.10097 c -0.45514,0 -0.91002,-0.22744 -0.91002,-0.68258 -0.22744,-0.45514 0,-1.13772 0.45514,-1.5926 0.45514,-0.22743 13.87903,-7.05323 20.70483,-9.10097 0.68258,-0.22744 1.13772,0.22744 1.36516,0.68258 0.22744,0.68258 -0.22744,1.13772 -0.68258,1.36516 -6.59836,2.04774 -20.24996,8.87354 -20.24996,9.10097 -0.22743,0.22744 -0.45514,0.22744 -0.68257,0.22744 z m -54.606365,-4.55062 c -0.45514,0 -0.91001,-0.22744 -1.13772,-0.91002 -0.2277,-0.68257 0.22744,-1.13772 0.91002,-1.36516 0.68258,-0.22743 16.38191,-4.32291 30.0335,-1.13772 0.68258,0.22744 0.91002,0.68258 0.91002,1.36516 -0.22744,0.68258 -0.68258,0.91002 -1.36516,0.91002 -13.19645,-3.18546 -28.89578,0.91002 -29.12348,1.13772 2.6e-4,0 -0.22718,0 -0.22718,0 z m 54.606365,-9.10097 c -0.45514,0 -0.91002,-0.22744 -0.91002,-0.68258 -0.22744,-0.45514 0,-1.13772 0.45514,-1.5926 0.45514,-0.22744 13.87903,-7.05323 20.70483,-9.10097 0.68258,-0.22744 1.13772,0.22744 1.36516,0.68258 0.22744,0.68258 -0.22744,1.13772 -0.68258,1.36516 -6.59836,2.04774 -20.24996,8.87353 -20.24996,9.10097 -0.22743,0.22744 -0.45514,0.22744 -0.68257,0.22744 z m -54.606365,-4.55062 c -0.45514,0 -0.91001,-0.22744 -1.13772,-0.91002 -0.22744,-0.68258 0.22744,-1.13772 0.91002,-1.36516 0.68258,-0.22744 16.38191,-4.32291 30.0335,-1.13772 0.68258,0.22744 0.91002,0.68258 0.91002,1.36516 -0.22744,0.68258 -0.68258,0.91002 -1.36516,0.91002 -13.19645,-3.18546 -28.89578,0.91001 -29.12348,1.13772 2.6e-4,0 -0.22718,0 -0.22718,0 z m 54.606365,-9.10097 c -0.45514,0 -0.91002,-0.22744 -0.91002,-0.68258 -0.22744,-0.45515 0,-1.13772 0.45514,-1.5926 0.45514,-0.22744 13.87903,-7.05323 20.70483,-9.10097 0.68258,-0.22744 1.13772,0.22743 1.36516,0.68258 0.22744,0.68258 -0.22744,1.13772 -0.68258,1.36516 -6.59836,2.04773 -20.24996,8.87353 -20.24996,9.10097 -0.22743,0.22744 -0.45514,0.22744 -0.68257,0.22744 z m -54.606365,-4.55062 c -0.45514,0 -0.91001,-0.22744 -1.13772,-0.91002 -0.22744,-0.68258 0.22744,-1.13772 0.91002,-1.36516 0.68258,-0.22744 16.38191,-4.32292 30.0335,-1.13772 0.68258,0.22744 0.91002,0.68258 0.91002,1.36516 -0.22744,0.68258 -0.68258,0.91002 -1.36516,0.91002 -13.19645,-3.18547 -28.89578,0.91001 -29.12348,1.13772 2.6e-4,0 -0.22718,0 -0.22718,0 z m 54.606365,-9.10098 c -0.45514,0 -0.91002,-0.22743 -0.91002,-0.68257 -0.22744,-0.45514 0,-1.13773 0.45514,-1.5926 0.45514,-0.22744 13.87903,-7.05323 20.70483,-9.10097 0.68258,-0.22744 1.13772,0.22744 1.36516,0.68258 0.22744,0.68258 -0.22744,1.13772 -0.68258,1.36516 -6.59836,2.04774 -20.24996,8.87353 -20.24996,9.10097 -0.22743,0.22743 -0.45514,0.22743 -0.68257,0.22743 z"
     id="path5822" /><g
     inkscape:groupmode="layer"
     id="layer1"
     inkscape:label="Layer 1"
     style="display:inline"><polygon
       style="fill:#ffffff"
       points="151.79,220.315 206.804,165.301 357.947,315.863 369.067,382.642 302.933,370.941 "
       id="polygon3079"
       transform="translate(4.167,-1.10024)" /><path
       style="fill:#e1e6e9"
       d="m 72.756993,37.234755 -43.249003,43.249 c -6.788,6.788 -6.788,17.907 0,25.341005 l 119.919,119.919 68.59,-68.59 L 97.515993,37.234755 c -6.787,-6.788 -17.907,-6.788 -24.759,0 z"
       id="path3081"
       inkscape:connector-curvature="0" /><g
       id="g3091"
       transform="translate(4.167,-1.10024)"><rect
         x="84.917"
         y="98.07"
         transform="matrix(-0.7071,0.7071,-0.7071,-0.7071,228.7166,113.749)"
         style="fill:#193651"
         width="11.766"
         height="12.347"
         id="rect3083" /><rect
         x="106.521"
         y="119.994"
         transform="matrix(-0.7071,0.7071,-0.7071,-0.7071,281.0985,135.8996)"
         style="fill:#193651"
         width="11.766"
         height="12.347"
         id="rect3085" /><rect
         x="129.02299"
         y="141.89799"
         transform="matrix(-0.7071,0.7071,-0.7071,-0.7071,335.0007,157.3817)"
         style="fill:#193651"
         width="11.766"
         height="12.347"
         id="rect3087" /><path
         style="fill:#193651"
         d="m 380.186,385.099 -5.56,-5.56 -11.119,-66.133 -148.364,-148.364 6.788,-6.788 -97.681,-98.262 10.537,-10.537 77.899,77.899 c 5.56,5.56 12.347,8.016 19.782,8.016 7.435,0 14.222,-3.103 19.782,-8.016 l -8.663,-8.663 c -6.206,6.206 -16.097,6.206 -22.238,0 L 105.115,1.875 96.452,10.538 126.771,40.857 116.234,51.394 98.909,34.004 c -9.244,-9.244 -24.695,-9.244 -34.004,0 L 21.657,77.253 c -9.244,9.244 -9.244,24.76 0,34.004 l 124.251,124.25 6.788,-6.788 148.364,148.364 66.133,11.119 5.56,5.56 c 1.228,1.228 5.56,3.103 8.663,0 1.226,-2.457 1.226,-6.142 -1.23,-8.663 z M 144.679,218.246 29.026,102.594 c -4.331,-4.331 -4.331,-11.766 0,-16.679 L 72.274,42.667 c 2.457,-2.457 4.978,-3.103 8.016,-3.103 3.038,0 6.206,1.228 8.016,3.103 l 115.588,115.588 z m 160.711,147.071 -145.261,-145.26 46.352,-46.352 145.261,145.261 9.244,55.661 z"
         id="path3089"
         inkscape:connector-curvature="0" /></g></g></svg>